<svg width="24" height="24" viewBox="0 0 24 24" fill="none" xmlns="http://www.w3.org/2000/svg">
<path fill-rule="evenodd" clip-rule="evenodd" d="M12 13.9395C12.4142 13.9395 12.75 14.2752 12.75 14.6895V17.2265C12.75 17.6407 12.4142 17.9765 12 17.9765C11.5858 17.9765 11.25 17.6407 11.25 17.2265V14.6895C11.25 14.2752 11.5858 13.9395 12 13.9395Z" fill="black"/>
<path fill-rule="evenodd" clip-rule="evenodd" d="M2.00488 6.12988C2.00488 5.5776 2.4526 5.12988 3.00488 5.12988H20.9949C21.5472 5.12988 21.9949 5.5776 21.9949 6.12988V12.3799C21.9949 12.6462 21.8536 12.8926 21.6238 13.0271C19.0352 14.5424 15.6513 15.4399 11.9949 15.4399C8.338 15.4399 4.96422 14.5422 2.376 13.0271C2.14614 12.8926 2.00488 12.6462 2.00488 12.3799V6.12988ZM4.50488 6.62988C3.9526 6.62988 3.50488 7.0776 3.50488 7.62988V11.347C3.50488 11.7136 3.70404 12.0533 4.03336 12.2144C6.23852 13.293 8.99502 13.9399 11.9949 13.9399C14.9952 13.9399 17.7594 13.2928 19.9662 12.2142C20.2957 12.0532 20.4949 11.7135 20.4949 11.3469V7.62988C20.4949 7.0776 20.0472 6.62988 19.4949 6.62988H4.50488Z" fill="black"/>
<path fill-rule="evenodd" clip-rule="evenodd" d="M9.00725 2.5498H14.9927L16.486 6.00172L15.1093 6.59728L14.0072 4.0498H9.99261L8.89033 6.59731L7.51367 6.00164L9.00725 2.5498Z" fill="black"/>
<path fill-rule="evenodd" clip-rule="evenodd" d="M2.75346 14.4436C3.16743 14.4294 3.51454 14.7535 3.52875 15.1675L3.65975 18.9845C3.67823 19.5231 4.12023 19.9502 4.65916 19.9502H19.3402C19.8792 19.9502 20.3211 19.5231 20.3396 18.9845L20.4706 15.1675C20.4848 14.7535 20.8319 14.4294 21.2459 14.4436C21.6599 14.4578 21.984 14.8049 21.9697 15.2189L21.789 20.4845C21.7705 21.0231 21.3286 21.4502 20.7896 21.4502H3.20976C2.67082 21.4502 2.22883 21.0231 2.21035 20.4845L2.02963 15.2189C2.01542 14.8049 2.3395 14.4578 2.75346 14.4436Z" fill="black"/>
</svg>
