<svg width="24" height="24" viewBox="0 0 24 24" fill="none" xmlns="http://www.w3.org/2000/svg">
<path fill-rule="evenodd" clip-rule="evenodd" d="M5.06186 8.93778C5.06186 5.35915 7.77136 2.41335 11.2508 2.03994C11.6627 1.99574 11.9996 2.33579 11.9996 2.75C11.9996 3.16421 11.662 3.49457 11.2516 3.55103C8.60237 3.91551 6.56186 6.18835 6.56186 8.93778V13.4158C6.56186 13.6787 6.45835 13.931 6.27374 14.1181L5.23734 15.1686C5.05272 15.3558 4.94922 15.6081 4.94922 15.8709V16.1072C4.94922 16.6595 5.39693 17.1072 5.94922 17.1072H18.05C18.6023 17.1072 19.05 16.6595 19.05 16.1072V15.8709C19.05 15.6081 18.9465 15.3558 18.7619 15.1686L17.7255 14.1181C17.5409 13.931 17.4374 13.6787 17.4374 13.4158V9.68778C17.4374 9.27356 17.7732 8.93778 18.1874 8.93778C18.6016 8.93778 18.9374 9.27356 18.9374 9.68778V12.8004C18.9374 13.0633 19.0409 13.3156 19.2255 13.5027L20.2619 14.5532C20.4465 14.7404 20.55 14.9927 20.55 15.2555V17.6072C20.55 18.1595 20.1023 18.6072 19.55 18.6072H4.44922C3.89693 18.6072 3.44922 18.1595 3.44922 17.6072V15.2555C3.44922 14.9927 3.55272 14.7404 3.73734 14.5532L4.77374 13.5027C4.95835 13.3156 5.06186 13.0633 5.06186 12.8004V8.93778Z" fill="black"/>
<path fill-rule="evenodd" clip-rule="evenodd" d="M8.08398 18.0834V17.8574H9.58398V18.0834C9.58398 19.4181 10.666 20.5001 12.0007 20.5001C13.3353 20.5001 14.4173 19.4181 14.4173 18.0834V17.8574H15.9173V18.0834C15.9173 20.2465 14.1638 22.0001 12.0007 22.0001C9.83754 22.0001 8.08398 20.2465 8.08398 18.0834Z" fill="black"/>
<path fill-rule="evenodd" clip-rule="evenodd" d="M16.3379 3.22961C15.4571 3.22961 14.7432 3.9436 14.7432 4.82434C14.7432 5.70508 15.4571 6.41907 16.3379 6.41907C17.2186 6.41907 17.9326 5.70508 17.9326 4.82434C17.9326 3.9436 17.2186 3.22961 16.3379 3.22961ZM13.2432 4.82434C13.2432 3.11517 14.6287 1.72961 16.3379 1.72961C18.0471 1.72961 19.4326 3.11517 19.4326 4.82434C19.4326 6.53351 18.0471 7.91907 16.3379 7.91907C14.6287 7.91907 13.2432 6.53351 13.2432 4.82434Z" fill="black"/>
</svg>
