<svg width="24" height="24" viewBox="0 0 24 24" fill="none" xmlns="http://www.w3.org/2000/svg">
<path fill-rule="evenodd" clip-rule="evenodd" d="M11.35 2.32318C11.7244 2.00232 12.2769 2.00232 12.6513 2.32318L22.5548 10.8093C22.8694 11.0788 22.9059 11.5523 22.6363 11.8668C22.3668 12.1813 21.8934 12.2178 21.5788 11.9483L12.6513 4.29854C12.2769 3.97768 11.7244 3.97768 11.35 4.29853L2.42248 11.9483C2.10795 12.2178 1.63448 12.1813 1.36496 11.8668C1.09544 11.5523 1.13193 11.0788 1.44647 10.8093L11.35 2.32318Z" fill="black"/>
<path fill-rule="evenodd" clip-rule="evenodd" d="M4.09375 9.40625C4.50796 9.40625 4.84375 9.74204 4.84375 10.1563V19.4972C4.84375 20.0495 5.29147 20.4972 5.84375 20.4972H18.1613C18.7136 20.4972 19.1613 20.0495 19.1613 19.4972V10.1562C19.1613 9.74204 19.4971 9.40625 19.9113 9.40625C20.3255 9.40625 20.6613 9.74204 20.6613 10.1563V20.9972C20.6613 21.5495 20.2136 21.9972 19.6613 21.9972H4.34375C3.79147 21.9972 3.34375 21.5495 3.34375 20.9972V10.1562C3.34375 9.74204 3.67954 9.40625 4.09375 9.40625Z" fill="black"/>
<path fill-rule="evenodd" clip-rule="evenodd" d="M12 11.9531C12.4142 11.9531 12.75 12.2889 12.75 12.7031L12.75 16.1115C12.75 16.5257 12.4142 16.8615 12 16.8615C11.5858 16.8615 11.25 16.5257 11.25 16.1115L11.25 12.7031C11.25 12.2889 11.5858 11.9531 12 11.9531Z" fill="black"/>
</svg>
