<svg width="24" height="24" viewBox="0 0 24 24" fill="none" xmlns="http://www.w3.org/2000/svg">
<path d="M11.94 14.3714H12.09C13.77 14.3714 15.41 13.3214 16.4 11.6314L16.78 10.9814L15.48 10.2314L15.1 10.8814C14.53 11.8614 13.43 12.9514 12.01 12.8714C10.61 12.9214 9.52002 11.8614 8.95002 10.8814L8.57002 10.2314L7.27002 10.9814L7.65002 11.6314C8.64002 13.3314 10.29 14.3714 11.94 14.3714Z" fill="black"/>
<path fill-rule="evenodd" clip-rule="evenodd" d="M11.7001 21.0417L12.0001 21.1717L12.3001 21.0417C17.0101 18.9517 22.0301 14.8517 22.0001 9.60169C21.9901 6.49169 20.2701 4.01169 17.5201 3.12169C15.4101 2.44169 13.4801 2.95169 12.0001 4.56169C10.5201 2.95169 8.59006 2.44169 6.48006 3.12169C3.73006 4.01169 2.01006 6.49169 2.00006 9.60169C1.98006 14.8617 7.00006 18.9617 11.7001 21.0417ZM6.94006 4.55169C7.40006 4.40169 7.83006 4.33169 8.25006 4.33169V4.32169C9.47006 4.32169 10.5201 4.95169 11.3801 6.19169L12.0001 7.07169L12.6201 6.19169C13.7801 4.53169 15.2801 3.97169 17.0601 4.55169C19.5801 5.37169 20.5001 7.70169 20.5001 9.61169C20.5201 14.0317 16.0001 17.6817 12.0001 19.5317C8.00006 17.6817 3.48006 14.0317 3.50006 9.61169C3.50006 7.70169 4.41006 5.36169 6.94006 4.55169Z" fill="black"/>
</svg>
