<svg width="24" height="24" viewBox="0 0 24 24" fill="none" xmlns="http://www.w3.org/2000/svg">
<path fill-rule="evenodd" clip-rule="evenodd" d="M12 3.5C7.30521 3.5 3.5 7.30521 3.5 12C3.5 16.6938 7.30527 20.5 12 20.5C16.6938 20.5 20.5 16.6938 20.5 12C20.5 7.30527 16.6938 3.5 12 3.5ZM2 12C2 6.47679 6.47679 2 12 2C17.5222 2 22 6.47673 22 12C22 17.5222 17.5222 22 12 22C6.47673 22 2 17.5222 2 12Z" fill="black"/>
<path fill-rule="evenodd" clip-rule="evenodd" d="M11.9951 7.4541C12.4093 7.4541 12.7451 7.78989 12.7451 8.2041V12.6231C12.7451 13.0373 12.4093 13.3731 11.9951 13.3731C11.5809 13.3731 11.2451 13.0373 11.2451 12.6231V8.2041C11.2451 7.78989 11.5809 7.4541 11.9951 7.4541Z" fill="black"/>
<path fill-rule="evenodd" clip-rule="evenodd" d="M11.2451 15.7959C11.2451 15.3817 11.5859 15.0459 12.0001 15.0459C12.4143 15.0459 12.7551 15.3817 12.7551 15.7959C12.7551 16.2101 12.4143 16.5459 12.0001 16.5459C11.5859 16.5459 11.2451 16.2101 11.2451 15.7959Z" fill="black"/>
</svg>
