<svg width="24" height="24" viewBox="0 0 24 24" fill="none" xmlns="http://www.w3.org/2000/svg">
<path fill-rule="evenodd" clip-rule="evenodd" d="M18.0179 6.00405C14.7115 2.69726 9.33872 2.69726 6.03228 6.00491C4.37306 7.66376 3.54682 9.83245 3.54843 12.0039C3.54968 13.6831 3.53761 15.9854 3.52525 17.8665C3.51907 18.8073 3.51281 19.6433 3.5081 20.2441L3.50645 20.4485C3.56785 20.4481 3.63245 20.4477 3.70005 20.4473C4.29413 20.4435 5.12061 20.4393 6.05026 20.4372C7.90752 20.4332 10.1839 20.4381 11.8412 20.4739C14.0716 20.5221 16.3134 19.697 18.0179 17.9923C21.3248 14.6851 21.3306 9.31705 18.0179 6.00405ZM2.75024 21.2042L2.00027 21.1976L2.00814 20.2323C2.01285 19.632 2.01911 18.7966 2.02528 17.8566C2.03764 15.9759 2.04967 13.6783 2.04843 12.005C2.04653 9.45151 3.01939 6.89611 4.97143 4.94444C4.97138 4.94449 4.97148 4.94439 4.97143 4.94444M4.97143 4.94444C8.86368 1.05092 15.1865 1.05082 19.0787 4.94345C22.9777 8.8429 22.9705 15.1606 19.0787 19.0529C17.0731 21.0586 14.4313 22.0302 11.8088 21.9735C10.1708 21.9381 7.90982 21.9332 6.05352 21.9372C5.1264 21.9393 4.30205 21.9435 3.7095 21.9472C3.41324 21.9491 3.17497 21.9508 3.01083 21.9521L2.75796 21.9542L2.75024 21.2042L2.75695 21.9542L1.99365 21.961L2.00027 21.1976L2.75024 21.2042" fill="black"/>
<path fill-rule="evenodd" clip-rule="evenodd" d="M7.46582 11.6308H9.06456V13.1308H7.46582V11.6308Z" fill="black"/>
<path fill-rule="evenodd" clip-rule="evenodd" d="M11.2002 11.6309H12.7989V13.1309H11.2002V11.6309Z" fill="black"/>
<path fill-rule="evenodd" clip-rule="evenodd" d="M14.9346 11.6308H16.5333V13.1308H14.9346V11.6308Z" fill="black"/>
</svg>
