<svg width="24" height="24" viewBox="0 0 24 24" fill="none" xmlns="http://www.w3.org/2000/svg">
<path fill-rule="evenodd" clip-rule="evenodd" d="M7.89941 16.2865C7.89941 15.8723 8.2352 15.5365 8.64941 15.5365H14.0927C14.5069 15.5365 14.8427 15.8723 14.8427 16.2865C14.8427 16.7007 14.5069 17.0365 14.0927 17.0365H8.64941C8.2352 17.0365 7.89941 16.7007 7.89941 16.2865Z" fill="black"/>
<path fill-rule="evenodd" clip-rule="evenodd" d="M7.89844 12.504C7.89844 12.0898 8.23422 11.754 8.64844 11.754H12.0313C12.4455 11.754 12.7813 12.0898 12.7813 12.504C12.7813 12.9182 12.4455 13.254 12.0313 13.254H8.64844C8.23422 13.254 7.89844 12.9182 7.89844 12.504Z" fill="black"/>
<path fill-rule="evenodd" clip-rule="evenodd" d="M3.5752 3C3.5752 2.44772 4.02291 2 4.5752 2H14.4614C14.7336 2 14.9941 2.11101 15.1827 2.30739L20.1458 7.47625C20.3246 7.66248 20.4245 7.91066 20.4245 8.16885V21C20.4245 21.5523 19.9768 22 19.4245 22H4.5752C4.02291 22 3.5752 21.5523 3.5752 21V3ZM6.0752 3.5C5.52291 3.5 5.0752 3.94772 5.0752 4.5V19.5C5.0752 20.0523 5.52291 20.5 6.0752 20.5H17.9245C18.4768 20.5 18.9245 20.0523 18.9245 19.5V8.77241C18.9245 8.51422 18.8246 8.26604 18.6458 8.0798L14.5435 3.80739C14.3549 3.61101 14.0944 3.5 13.8221 3.5H6.0752Z" fill="black"/>
<path fill-rule="evenodd" clip-rule="evenodd" d="M14.8418 2.55469V7.90011H19.9489V9.40011H13.3418V2.55469H14.8418Z" fill="black"/>
</svg>
