<svg width="24" height="24" viewBox="0 0 24 24" fill="none" xmlns="http://www.w3.org/2000/svg">
<path fill-rule="evenodd" clip-rule="evenodd" d="M12.9324 6.2254L17.7939 11.0869L6.88051 22.0003L2.02361 21.9957L2.01904 17.1388L12.9324 6.2254ZM3.51963 17.7595L3.5222 20.4971L6.25977 20.4997L15.6726 11.0869L12.9324 8.34672L3.51963 17.7595Z" fill="black"/>
<path fill-rule="evenodd" clip-rule="evenodd" d="M12.9324 6.22543L17.7939 11.0869L6.88051 22.0003L2.02361 21.9957L2.01904 17.1388L12.9324 6.22543ZM3.51963 17.7596L3.5222 20.4971L6.25977 20.4997L15.6726 11.0869L12.9324 8.34675L3.51963 17.7596Z" fill="black"/>
<path fill-rule="evenodd" clip-rule="evenodd" d="M13.4935 14.5537L9.44669 10.5069L10.5073 9.44623L14.5542 13.4931L13.4935 14.5537Z" fill="black"/>
<path fill-rule="evenodd" clip-rule="evenodd" d="M21.9805 21C21.9805 21.5523 21.5328 22 20.9805 22H12.6937C12.2795 22 11.9437 21.6642 11.9437 21.25C11.9437 20.8358 12.2795 20.5 12.6937 20.5H19.4805C20.0328 20.5 20.4805 20.0523 20.4805 19.5V4.5C20.4805 3.94772 20.0328 3.5 19.4805 3.5H4.51927C3.96698 3.5 3.51927 3.94771 3.51927 4.5V11.4464C3.51927 11.8606 3.18348 12.1964 2.76927 12.1964C2.35505 12.1964 2.01927 11.8606 2.01927 11.4464V3C2.01927 2.44772 2.46698 2 3.01927 2H20.9805C21.5328 2 21.9805 2.44772 21.9805 3V21Z" fill="black"/>
</svg>
