<svg width="20" height="38" viewBox="0 0 20 38" fill="none" xmlns="http://www.w3.org/2000/svg">
<path d="M0.535513 3.20389C0.363829 3.0226 0.22961 2.80935 0.140522 2.5763C0.0514317 2.34325 0.0092144 2.09498 0.016283 1.84565C0.0233517 1.59632 0.079567 1.35083 0.181717 1.12318C0.283867 0.895526 0.429953 0.690183 0.611631 0.518869C0.793312 0.347555 1.00703 0.213626 1.24058 0.124729C1.47413 0.0358314 1.72294 -0.00629356 1.97281 0.000759558C2.22268 0.00781268 2.46871 0.0639054 2.69685 0.165835C2.92499 0.267765 3.13078 0.413536 3.30246 0.594824L19.4779 17.6848C19.8119 18.0374 19.998 18.5041 19.998 18.9893C19.998 19.4745 19.8119 19.9413 19.4779 20.2939L3.30246 37.3857C3.13191 37.571 2.92617 37.7206 2.69719 37.8258C2.46821 37.9311 2.22055 37.9899 1.96861 37.9988C1.71666 38.0077 1.46545 37.9666 1.22956 37.8779C0.993671 37.7891 0.777809 37.6544 0.594511 37.4817C0.411215 37.309 0.264135 37.1017 0.161819 36.8718C0.0595016 36.6419 0.00398636 36.394 -0.00150108 36.1425C-0.00699043 35.891 0.0376549 35.6409 0.129843 35.4067C0.222031 35.1726 0.359924 34.9591 0.535513 34.7786L15.4778 18.9893L0.535513 3.20389Z" fill="black"/>
</svg>
