<svg width="30" height="30" viewBox="0 0 30 30" fill="none" xmlns="http://www.w3.org/2000/svg">
<path d="M3.00001 29.0266C3.00001 29.0266 0.600006 29.0266 0.600006 26.6266C0.600006 24.2266 3.00001 17.0266 15 17.0266C27 17.0266 29.4 24.2266 29.4 26.6266C29.4 29.0266 27 29.0266 27 29.0266H3.00001ZM15 14.6266C16.9096 14.6266 18.7409 13.868 20.0912 12.5177C21.4414 11.1675 22.2 9.33612 22.2 7.42656C22.2 5.517 21.4414 3.68566 20.0912 2.33539C18.7409 0.985132 16.9096 0.226563 15 0.226562C13.0904 0.226563 11.2591 0.985132 9.90884 2.33539C8.55858 3.68566 7.80001 5.517 7.80001 7.42656C7.80001 9.33612 8.55858 11.1675 9.90884 12.5177C11.2591 13.868 13.0904 14.6266 15 14.6266Z" fill="#454C57"/>
</svg>
