<svg width="14" height="17" viewBox="0 0 14 17" fill="none" xmlns="http://www.w3.org/2000/svg">
<path d="M7 16.1265C7.33152 16.1265 7.64946 15.9948 7.88388 15.7604C8.11831 15.526 8.25 15.208 8.25 14.8765V4.9765L11.5333 8.25984C11.7703 8.48064 12.0837 8.60084 12.4075 8.59513C12.7314 8.58942 13.0403 8.45823 13.2694 8.22921C13.4984 8.00019 13.6296 7.69121 13.6353 7.36737C13.641 7.04354 13.5208 6.73013 13.3 6.49317L7.88334 1.0765C7.64896 0.84242 7.33125 0.710938 7 0.710938C6.66875 0.710938 6.35104 0.84242 6.11667 1.0765L0.700002 6.49317C0.57719 6.60761 0.478687 6.74561 0.410367 6.89894C0.342047 7.05227 0.30531 7.21779 0.302349 7.38563C0.299388 7.55347 0.330262 7.72019 0.39313 7.87583C0.455999 8.03148 0.549573 8.17287 0.668271 8.29157C0.786969 8.41027 0.928359 8.50384 1.08401 8.56671C1.23965 8.62958 1.40637 8.66045 1.57421 8.65749C1.74204 8.65453 1.90757 8.61779 2.0609 8.54947C2.21423 8.48115 2.35223 8.38265 2.46667 8.25984L5.75 4.9765V14.8765C5.75 15.5665 6.31 16.1265 7 16.1265Z" fill="#FF3D3D"/>
</svg>
