<svg width="33" height="31" viewBox="0 0 33 31" fill="none" xmlns="http://www.w3.org/2000/svg">
<path fill-rule="evenodd" clip-rule="evenodd" d="M17.2978 3.88062C18.9207 0.737758 22.2829 -0.0690985 24.0475 0.0109015C25.3115 0.0680443 25.8807 1.19033 25.8807 2.04519V6.05204C27.4807 6.85662 28.5527 7.9309 29.2109 9.26804C29.8578 10.5869 30.0544 12.068 30.0887 13.5858L31.6772 14.8886C31.8081 14.9959 31.9135 15.1309 31.9858 15.2839C32.0582 15.4368 32.0956 15.604 32.0955 15.7732V20.8452C32.095 21.0111 32.0583 21.1749 31.9881 21.3252C30.7355 24.02 28.5161 25.476 25.8807 26.5069V27.9629C25.8807 28.5691 25.6398 29.1505 25.2112 29.5791C24.7825 30.0078 24.2012 30.2486 23.5949 30.2486H19.5949C18.9887 30.2486 18.4074 30.0078 17.9787 29.5791C17.5501 29.1505 17.3092 28.5691 17.3092 27.9629V26.8566H12.4178V27.7846C12.4178 28.3908 12.177 28.9722 11.7483 29.4009C11.3197 29.8295 10.7383 30.0703 10.1321 30.0703H6.09324C5.48703 30.0703 4.90565 29.8295 4.47699 29.4009C4.04834 28.9722 3.80752 28.3908 3.80752 27.7846V23.8623L3.72066 23.5858L3.67495 23.4418L3.37323 22.4703L3.36181 22.436C2.58009 19.8235 1.12409 14.9709 3.21095 10.3423C3.36502 9.99497 3.5406 9.65755 3.73666 9.33204C2.65781 8.4749 1.57438 7.27033 0.97552 5.66119C0.860786 5.31076 0.885993 4.92954 1.04587 4.59727C1.20574 4.265 1.4879 4.00742 1.83332 3.8784C2.17875 3.74939 2.56068 3.75893 2.89923 3.90503C3.23778 4.05114 3.50672 4.32249 3.64981 4.66233C4.02695 5.66804 4.73781 6.48633 5.54466 7.11947C6.31611 6.42673 7.18377 5.84931 8.12066 5.40519C10.3995 4.3149 13.4007 3.75033 17.2978 3.8829V3.88062ZM17.3572 10.3309C17.3572 11.1195 16.7172 11.7595 15.9287 11.7595H11.6909C11.3121 11.7595 10.9487 11.609 10.6808 11.3411C10.4129 11.0731 10.2624 10.7098 10.2624 10.3309C10.2624 9.95202 10.4129 9.58866 10.6808 9.32075C10.9487 9.05284 11.3121 8.90233 11.6909 8.90233H15.9287C16.7195 8.90233 17.3572 9.54233 17.3572 10.3309ZM22.9778 14.9412C23.215 14.9533 23.4521 14.9171 23.6748 14.8347C23.8975 14.7523 24.1011 14.6254 24.2733 14.4619C24.4454 14.2983 24.5825 14.1015 24.6761 13.8832C24.7698 13.665 24.8181 13.4301 24.8181 13.1926C24.8181 12.9552 24.7698 12.7202 24.6761 12.502C24.5825 12.2838 24.4454 12.0869 24.2733 11.9233C24.1011 11.7598 23.8975 11.6329 23.6748 11.5505C23.4521 11.4681 23.215 11.4319 22.9778 11.444C22.5295 11.467 22.1072 11.6612 21.798 11.9866C21.4888 12.312 21.3164 12.7437 21.3164 13.1926C21.3164 13.6415 21.4888 14.0732 21.798 14.3986C22.1072 14.724 22.5295 14.9183 22.9778 14.9412Z" fill="#454C57"/>
</svg>
