<svg width="32" height="33" viewBox="0 0 32 33" fill="none" xmlns="http://www.w3.org/2000/svg">
<path d="M16 23.0798C15.1126 23.0798 14.3533 22.7641 13.722 22.1328C13.0906 21.5014 12.7744 20.7415 12.7733 19.8531C12.7722 18.9647 13.0885 18.2054 13.722 17.5751C14.3555 16.9448 15.1148 16.6286 16 16.6264C16.8852 16.6243 17.645 16.9405 18.2796 17.5751C18.9142 18.2097 19.2299 18.969 19.2266 19.8531C19.2234 20.7372 18.9077 21.4971 18.2796 22.1328C17.6515 22.7684 16.8916 23.0841 16 23.0798ZM8.53831 8.55978H23.4616L26.6883 2.10645H5.31165L8.53831 8.55978ZM10.192 31.1464H21.808C24.228 31.1464 26.285 30.3064 27.979 28.6264C29.673 26.9464 30.52 24.8824 30.52 22.4344C30.52 21.4127 30.3452 20.4178 29.9956 19.4498C29.6461 18.4818 29.1486 17.6079 28.5033 16.8281L24.3086 11.7864H7.69131L3.49665 16.8281C2.85131 17.6079 2.35387 18.4818 2.00431 19.4498C1.65476 20.4178 1.47998 21.4127 1.47998 22.4344C1.47998 24.8813 2.32053 26.9453 4.00162 28.6264C5.68271 30.3075 7.74617 31.1475 10.192 31.1464Z" fill="#454C57"/>
</svg>
