<svg width="24" height="24" viewBox="0 0 24 24" fill="none" xmlns="http://www.w3.org/2000/svg">
<rect width="24" height="24" rx="6" fill="#FFB200"/>
<path fill-rule="evenodd" clip-rule="evenodd" d="M18.6793 7.12003C18.8762 7.31694 18.9868 7.58396 18.9868 7.86238C18.9868 8.1408 18.8762 8.40783 18.6793 8.60473L10.8092 16.4748C10.7052 16.5789 10.5818 16.6614 10.4459 16.7177C10.31 16.774 10.1643 16.803 10.0172 16.803C9.87009 16.803 9.72442 16.774 9.58852 16.7177C9.45262 16.6614 9.32914 16.5789 9.22514 16.4748L5.31494 12.5653C5.21465 12.4685 5.13466 12.3526 5.07963 12.2245C5.0246 12.0964 4.99564 11.9586 4.99442 11.8192C4.99321 11.6798 5.01978 11.5415 5.07257 11.4125C5.12537 11.2834 5.20334 11.1662 5.30192 11.0676C5.40051 10.969 5.51774 10.8911 5.64679 10.8383C5.77583 10.7855 5.91409 10.7589 6.05351 10.7601C6.19293 10.7613 6.33071 10.7903 6.45881 10.8453C6.58692 10.9004 6.70278 10.9803 6.79964 11.0806L10.0168 14.2978L17.1939 7.12003C17.2914 7.02246 17.4072 6.94506 17.5347 6.89225C17.6621 6.83944 17.7987 6.81226 17.9366 6.81226C18.0746 6.81226 18.2112 6.83944 18.3386 6.89225C18.466 6.94506 18.5818 7.02246 18.6793 7.12003Z" fill="white"/>
</svg>
