<svg width="20" height="20" viewBox="0 0 20 20" fill="none" xmlns="http://www.w3.org/2000/svg">
<path fill-rule="evenodd" clip-rule="evenodd" d="M20 10C20 4.47917 15.5208 0 10 0C4.47917 0 0 4.47917 0 10C0 15.5208 4.47917 20 10 20C15.5208 20 20 15.5208 20 10ZM15.6911 7.72277C16.0903 7.34109 16.1044 6.70808 15.7228 6.30891C15.3411 5.90974 14.7081 5.89556 14.3089 6.27724L8.72484 11.6166L5.69092 8.71707C5.29165 8.33549 4.65864 8.34982 4.27706 8.74909C3.89548 9.14836 3.90982 9.78136 4.30909 10.1629L8.03409 13.7229C8.4207 14.0924 9.02958 14.0923 9.4161 13.7228L15.6911 7.72277Z" fill="#FF5402"/>
</svg>
