<svg width="80" height="81" viewBox="0 0 80 81" fill="none" xmlns="http://www.w3.org/2000/svg">
<path d="M76.6665 13.8333V33.8333H56.6665" stroke="#FE680D" stroke-width="4" stroke-linecap="round" stroke-linejoin="round"/>
<path d="M3.3335 67.1667V47.1667H23.3335" stroke="#FE680D" stroke-width="4" stroke-linecap="round" stroke-linejoin="round"/>
<path d="M11.7002 30.4999C13.3907 25.7225 16.2639 21.4513 20.0517 18.0847C23.8395 14.718 28.4184 12.3658 33.3611 11.2475C38.3039 10.1291 43.4493 10.2811 48.3175 11.6892C53.1856 13.0973 57.6177 15.7156 61.2002 19.2999L76.6668 33.8333M3.3335 47.1666L18.8002 61.6999C22.3827 65.2842 26.8147 67.9026 31.6829 69.3107C36.551 70.7188 41.6965 70.8708 46.6392 69.7524C51.5819 68.634 56.1608 66.2818 59.9486 62.9152C63.7364 59.5486 66.6096 55.2773 68.3002 50.4999" stroke="#FE680D" stroke-width="4" stroke-linecap="round" stroke-linejoin="round"/>
</svg>
