<svg width="80" height="81" viewBox="0 0 80 81" fill="none" xmlns="http://www.w3.org/2000/svg">
<path d="M56.6668 70.5V63.8333C56.6668 60.2971 55.2621 56.9057 52.7616 54.4052C50.2611 51.9048 46.8697 50.5 43.3335 50.5H16.6668C13.1306 50.5 9.73922 51.9048 7.23874 54.4052C4.73825 56.9057 3.3335 60.2971 3.3335 63.8333V70.5" stroke="#FE680D" stroke-width="4" stroke-linecap="round" stroke-linejoin="round"/>
<path d="M29.9998 37.1667C37.3636 37.1667 43.3332 31.1971 43.3332 23.8333C43.3332 16.4695 37.3636 10.5 29.9998 10.5C22.636 10.5 16.6665 16.4695 16.6665 23.8333C16.6665 31.1971 22.636 37.1667 29.9998 37.1667Z" stroke="#FE680D" stroke-width="4" stroke-linecap="round" stroke-linejoin="round"/>
<path d="M76.6665 70.5V63.8333C76.6643 60.8791 75.681 58.0093 73.8711 55.6744C72.0611 53.3395 69.5269 51.6719 66.6665 50.9333" stroke="#FE680D" stroke-width="4" stroke-linecap="round" stroke-linejoin="round"/>
<path d="M53.3335 10.9333C56.2015 11.6677 58.7436 13.3357 60.559 15.6744C62.3743 18.0131 63.3596 20.8894 63.3596 23.85C63.3596 26.8106 62.3743 29.6869 60.559 32.0256C58.7436 34.3643 56.2015 36.0323 53.3335 36.7667" stroke="#FE680D" stroke-width="4" stroke-linecap="round" stroke-linejoin="round"/>
</svg>
