<svg width="80" height="81" viewBox="0 0 80 81" fill="none" xmlns="http://www.w3.org/2000/svg">
<rect width="80" height="80" transform="translate(0 0.5)" fill="white"/>
<g clip-path="url(#clip0_6_455)">
<path d="M79.9997 12.9303C79.4805 13.6899 78.6863 13.7832 77.834 13.7055C78.2272 16.5981 75.0271 16.635 75.5153 13.7055C72.5748 14.1076 72.4624 10.8672 75.5153 11.3801C74.9748 8.34364 78.2621 8.4602 77.834 11.3801C78.8219 11.3432 79.4534 11.2072 79.9997 12.1552V12.9303Z" fill="#FE680D"/>
<path d="M17.0965 49.1168C17.6428 48.4388 18.5106 48.736 18.9716 49.3927C19.8685 50.6709 20.6917 53.0915 21.6254 54.6418C25.7592 61.517 32.3453 66.43 40.0181 68.7011C58.6007 63.4092 65.3359 45.0546 64.3848 27.1158C64.3635 26.7253 64.2047 24.9536 64.0807 24.7826C56.3265 20.6059 48.2547 17.0391 40.1498 13.5889C31.9734 16.804 24.0565 20.6311 16.2171 24.5787L15.9149 25.0507C15.8684 25.9152 15.6921 26.8924 15.6534 27.7355C15.45 32.0716 15.8219 36.9303 16.6374 41.1867C16.8718 42.4126 17.852 45.3208 17.6292 46.3174C17.5905 46.4922 17.4122 46.6904 17.3173 46.8516C16.9357 47.1605 16.1938 47.1294 15.8219 46.8147C15.2989 46.3737 14.5163 42.5252 14.3439 41.6277C13.2068 35.7297 12.9472 29.3791 13.8383 23.4325C14.0378 23.0439 16.4495 21.855 17.05 21.5345C23.3998 18.1425 31.524 14.2843 38.2476 11.7705C39.1309 11.4402 39.7256 11.0381 40.7232 11.2965C42.6216 11.7899 46.1219 13.585 48.0919 14.4534C53.4654 16.8176 59.8055 19.5549 64.8497 22.467C65.2565 22.702 66.1108 23.1178 66.2774 23.518C66.4943 24.0347 66.6725 26.1367 66.7093 26.8089C67.7437 46.2144 60.1484 65.7074 40.0278 71.1081C30.4063 68.5826 21.67 61.4354 17.6951 52.2329C17.3522 51.4383 16.4921 49.8783 17.1004 49.1187L17.0965 49.1168Z" fill="#FE680D"/>
<path d="M29.5306 10.5564C22.8127 13.6958 16.0774 16.8118 9.51263 20.2601C9.36735 20.4116 9.34217 20.7089 9.31699 20.9167C8.09274 31.8094 10.0182 45.618 14.9559 55.4403C20.0737 65.618 29.2671 73.1829 40.2562 76.1513C57.7695 70.9177 67.5499 56.4971 70.2308 38.8866C70.4962 37.1401 70.5001 34.4748 70.9534 32.9381C71.3292 31.6637 73.0241 31.9804 73.1907 33.1868C73.2759 33.8045 72.9718 35.9551 72.8846 36.74C70.8449 55.1625 61.1459 71.2208 43.2297 77.5753C42.2514 77.923 40.5836 78.6457 39.6267 78.4748C37.0775 78.0221 32.3858 75.7395 30.04 74.4359C12.397 64.6312 5.89221 44.1435 6.69029 24.7982C6.74646 23.4383 6.85688 20.6195 7.18812 19.4014C7.37989 18.6943 8.2574 18.3155 8.85208 17.9677C14.8861 14.434 21.9178 11.8055 28.1843 8.65836C29.4744 8.26011 30.3364 9.484 29.5325 10.5544L29.5306 10.5564Z" fill="#FE680D"/>
<path d="M50.7302 28.0173C53.4498 27.6481 56.3051 29.6239 56.6286 32.4136C56.8649 34.4495 56.2238 35.72 54.9472 37.2101C50.364 42.5583 44.2719 47.3295 39.557 52.6428C37.6122 54.4417 35.0533 54.8439 32.7752 53.3869C31.4658 52.5496 24.9823 46.0765 24.19 44.7807C21.5575 40.4757 25.699 35.4111 30.3945 37.008C32.4343 37.7035 34.0479 40.2737 35.6886 41.6239L47.9834 29.2936C48.7156 28.7011 49.7965 28.1435 50.7321 28.0173H50.7302ZM50.8812 30.3407C50.3292 30.434 49.8042 30.8108 49.3742 31.1547L36.1903 44.3009C35.708 44.5107 35.4252 44.4485 34.999 44.1785C33.6314 43.3062 31.9946 40.8623 30.5805 39.7686C27.6168 37.4762 24.1707 41.0216 26.4816 43.8793C28.6008 46.4981 31.8319 48.8779 34.075 51.4655C34.9351 52.0406 35.9618 52.1047 36.9109 51.6948L53.9942 34.7021C55.1157 32.4349 53.4479 29.9056 50.8832 30.3427L50.8812 30.3407Z" fill="#FE680D"/>
<path d="M32.2563 6.92934L39.9214 3.70642C48.7332 7.11002 57.516 11.0226 65.9811 15.2771C67.7691 16.1746 70.2853 17.3033 71.9067 18.331C72.9643 19.0012 72.8307 19.0867 73.0205 20.3164C73.2103 21.5462 73.3072 23.1217 73.3556 24.3223C73.3886 25.1343 73.4777 28.705 73.2685 29.212C72.9973 29.8667 72.0655 30.0338 71.4941 29.6025C70.7096 29.01 71.0815 25.3072 71.0272 24.1766C70.9808 23.1761 70.8878 21.5617 70.7212 20.6059C70.6902 20.4291 70.6437 20.3125 70.4713 20.2348C60.6367 15.0556 50.4844 10.5058 40.2507 6.17364L33.2113 8.90506C32.1382 9.08185 31.4408 7.66174 32.2544 6.9274L32.2563 6.92934Z" fill="#FE680D"/>
<path d="M15.3494 4.71071C18.1504 4.29303 18.2531 7.50235 15.3494 7.03611C15.7194 9.85884 12.7033 10.1269 12.9629 7.18181C12.6936 6.79327 11.0316 7.50624 10.7681 6.10944C10.5221 4.80784 12.0486 4.57083 13.0307 4.71071C12.4941 1.71119 15.6845 1.81415 15.3494 4.71071Z" fill="#FE680D"/>
<path d="M5.29605 12.466C8.24624 12.0677 8.33923 15.3082 5.29605 14.7914C5.84037 17.8181 2.55313 17.721 2.97735 14.7914C0.0639627 15.2848 0.0852706 12.0755 2.97735 12.466C2.588 9.56362 5.78807 9.54614 5.29605 12.466Z" fill="#FE680D"/>
<path d="M6.95383 61.3596C7.81197 61.1673 9.50886 61.179 9.62702 62.3485C9.76649 63.7414 8.07541 63.7996 7.08556 63.6423C5.77608 63.4364 5.75284 61.6258 6.95577 61.3577L6.95383 61.3596Z" fill="#FE680D"/>
<path d="M7.11261 66.1717C7.96687 66.0163 9.50879 65.9891 9.62696 67.1567C9.76643 68.5496 8.07534 68.6078 7.08549 68.4505C5.79151 68.2465 5.65398 66.434 7.11261 66.1698V66.1717Z" fill="#FE680D"/>
<path d="M7.11092 70.9798C7.94775 70.8264 9.51292 70.8439 9.62527 71.9648C9.76474 73.3577 8.07366 73.416 7.0838 73.2586C5.79176 73.0546 5.65229 71.2441 7.11092 70.9779V70.9798Z" fill="#FE680D"/>
</g>
<defs>
<clipPath id="clip0_6_455">
<rect width="79.2" height="76" fill="white" transform="translate(0.799805 2.5)"/>
</clipPath>
</defs>
</svg>
