<svg width="80" height="81" viewBox="0 0 80 81" fill="none" xmlns="http://www.w3.org/2000/svg">
<g clip-path="url(#clip0_6_468)">
<rect width="80" height="80" transform="translate(0 0.5)" fill="white"/>
<g clip-path="url(#clip1_6_468)">
<path d="M3.53207 79.3C2.57673 78.903 2.02697 77.7582 2.69014 76.853C2.79586 76.7072 3.51285 76.2374 3.60896 76.2374H7.52263V61.6148C7.52263 60.282 9.46793 58.6232 10.7385 58.3931C12.334 58.1035 17.8719 58.138 19.5712 58.3221C21.6184 58.5446 23.3311 60.4853 23.3311 62.5334V76.2374H31.7716V49.213C31.7716 47.2799 33.8476 45.6134 35.6795 45.4562C37.3192 45.3143 43.3492 45.2491 44.6967 45.6575C45.8731 46.0142 47.5781 47.652 47.5781 48.9061V76.2374H56.1724V26.5513C56.1724 25.4199 58.1389 23.7074 59.2326 23.4792C60.8127 23.1512 66.2814 23.2701 68.073 23.4044C69.3724 23.5022 70.5872 24.1753 71.2427 25.2972C71.3465 25.4755 71.8271 26.4555 71.8271 26.5513V76.2374H75.587C75.6811 76.2374 76.3981 76.7072 76.5058 76.853C77.169 77.7582 76.6192 78.903 75.6638 79.3H3.53207ZM68.7611 76.2374V27.0097C68.7611 26.9675 68.392 26.6376 68.2979 26.5533C65.7682 26.6031 62.7311 26.2157 60.2341 26.465C59.9496 26.4938 59.2461 26.7163 59.2461 27.0097V76.2374H68.7611ZM44.5121 76.2374V49.213C44.5121 49.1593 43.872 48.513 43.6644 48.5264C41.2405 48.6875 38.5263 48.3001 36.1408 48.5149C35.7006 48.5552 34.8433 48.8601 34.8433 49.3645V76.2374H44.5121ZM20.1094 76.2374V61.9217C20.1094 61.6839 19.3713 61.4135 19.1156 61.3828C17.4586 61.1872 13.4354 61.2217 11.7381 61.379C11.3556 61.4135 10.5944 61.6033 10.5944 62.0751V76.2393H20.1094V76.2374Z" fill="#FE680D"/>
<path d="M68.7612 6.26195L52.6491 22.2672C51.7783 22.9365 51.3304 22.9844 50.4212 22.3401L44.9005 16.819L44.5142 16.7423L17.6625 43.4023C16.2824 43.8626 15.1713 42.6659 15.7499 41.3446L43.605 13.3978C44.0528 12.9835 44.5815 12.8972 45.1697 13.0334C46.2077 13.275 51.0536 19.1221 51.4938 19.1221L66.6122 3.96645H60.5494C60.4034 3.96645 59.7459 3.36812 59.6364 3.19361C59.0193 2.21558 59.6479 1.34302 60.5821 0.936461L70.3759 0.900024C71.1486 1.03043 71.7368 1.36603 71.8329 2.20215C72.1751 5.15735 71.5984 8.79142 71.7964 11.8195C71.4273 12.8934 69.9645 13.1868 69.2149 12.3162C69.0861 12.1647 68.7593 11.3803 68.7593 11.2384V6.26195H68.7612Z" fill="#FE680D"/>
<path d="M10.7999 46.2808C12.1147 44.9998 14.1619 46.6395 13.2065 48.1468C11.9821 50.0779 9.29865 47.746 10.7999 46.2808Z" fill="#FE680D"/>
</g>
</g>
<defs>
<clipPath id="clip0_6_468">
<rect width="80" height="80" fill="white" transform="translate(0 0.5)"/>
</clipPath>
<clipPath id="clip1_6_468">
<rect width="74.4" height="78.4" fill="white" transform="translate(2.3999 0.900024)"/>
</clipPath>
</defs>
</svg>
