<svg width="80" height="81" viewBox="0 0 80 81" fill="none" xmlns="http://www.w3.org/2000/svg">
<rect width="80" height="80" transform="translate(0 0.5)" fill="white"/>
<g clip-path="url(#clip0_6_474)">
<path d="M0 28.4282L0.779055 27.4057L25.1764 7.0474C25.5229 6.59207 24.7947 5.82665 25.3878 5.22805C25.6971 4.91599 26.3626 4.8316 26.7698 4.95525L50.7071 33.4584C51.1417 33.8274 51.496 33.166 51.8326 32.9991C54.4145 31.7156 55.4969 34.7478 57.0355 36.1786C58.5936 35.9647 60.0519 36.0589 61.3438 37.0127C64.2036 33.7822 69.1696 35.7017 68.921 40.0273C71.2386 39.9645 72.9591 42.0233 72.8965 44.2685C75.8307 44.5865 77.5532 46.9671 76.9112 49.8816C79.4402 50.543 80.6851 53.2632 79.6105 55.6812C79.1857 56.637 75.5077 60.1461 74.5388 60.782C73.9046 61.1981 73.1529 61.3021 72.5931 61.6515C70.7786 62.7819 69.0227 65.1626 67.1926 66.4226C63.9648 68.6463 60.2182 67.7474 56.5794 68.4735C54.4986 70.5225 52.412 73.1524 50.2687 75.0738C49.5894 75.6842 48.9689 75.8471 48.0626 75.9178C40.6264 76.5066 32.4345 75.4605 24.92 75.9178C22.4262 76.0139 20.9268 73.7667 22.8921 71.8316L45.0188 54.8L50.3019 41.9546C49.3604 40.251 46.4027 38.4906 47.9471 36.3081C48.2819 35.8351 48.9043 35.6703 49.0648 35.109L42.8069 27.4999L42.5016 27.5509L17.3056 48.5215C16.5657 48.8807 15.5909 48.4097 15.1818 47.7581L10.1101 36.6241C7.34818 34.4495 3.40396 32.6125 0.794715 30.3732C0.418889 30.0513 0.223147 29.8099 0 29.3683L0 28.4282ZM41.104 25.761L26.8226 8.69404L2.81674 28.8207L12.0343 35.2464L16.7556 45.556L17.1099 45.8229L41.102 25.763L41.104 25.761ZM51.7524 40.0037C51.9423 40.1137 52.1282 39.9822 52.2868 39.8762C53.0639 39.358 53.9604 37.9842 54.8412 37.417L53.0384 35.1835C52.8368 35.1482 50.0807 37.4307 50.0298 37.627C49.9144 38.0863 51.5997 39.3894 51.7524 40.0018V40.0037ZM64.6655 37.7114C64.0313 37.7487 63.3951 38.2315 62.986 38.6947L65.5346 41.2579C67.3178 40.4552 66.5877 37.6015 64.6655 37.7134V37.7114ZM24.6929 73.5587H48.3699L55.677 66.1557C59.862 65.3471 64.7614 66.7445 67.6545 62.8016L57.1216 50.0563C56.4385 50.8355 55.9941 52.488 54.667 51.8933C53.1108 51.1966 54.9704 49.2281 55.2523 48.18C55.6418 46.7277 54.9841 45.3794 56.5383 44.612C57.7969 43.9918 59.218 44.1076 60.3279 44.9574C61.6433 45.9642 62.4693 48.4234 64.3778 47.1438C66.1277 45.9701 65.5757 44.9358 64.4698 43.6267C63.4656 42.4394 61.5454 40.2923 60.4277 39.2972C59.5938 38.5553 58.76 38.259 57.6266 38.4945C56.2016 38.7889 53.5473 42.0566 52.3807 43.1067L46.8118 56.3288L24.691 73.5607L24.6929 73.5587ZM70.1228 42.8947C69.5141 42.1626 67.6995 42.1273 67.2748 43.0046C67.1495 43.2637 67.7504 44.19 67.817 44.6591C67.9736 45.7837 67.8111 46.9083 67.0457 47.7757L65.4876 49.2673C65.8087 49.3498 65.9085 49.177 66.116 49.0377C66.6719 48.6707 69.9467 45.6639 70.2461 45.187C70.6337 44.5688 70.6024 43.4697 70.1248 42.8927L70.1228 42.8947ZM65.0002 51.7932C63.6574 51.646 62.6181 51.1573 61.7353 50.1309C61.1245 49.4224 59.5625 47.1614 58.8246 46.7807C58.4859 46.608 58.2041 46.5668 57.8282 46.604L57.9124 47.2223L69.3222 61.0215H69.8586L68.7918 59.8203C67.9775 58.6506 67.9168 57.3926 68.1184 56.0286C66.2041 55.4515 65.0042 53.799 64.9983 51.7913L65.0002 51.7932ZM72.3191 46.8003C72 46.867 71.677 47.1104 71.4206 47.3086C70.759 47.8189 68.0812 50.3291 67.6995 50.9434C66.621 52.6842 68.5412 54.5625 70.2266 53.4771C71.174 52.2368 74.711 50.1093 74.7091 48.5667C74.7091 47.234 73.5483 46.5432 72.3191 46.8023V46.8003ZM77.1539 52.6136C76.7213 52.1779 75.9188 52.0052 75.3276 52.1642C74.8559 52.2917 72.8534 54.1896 72.3602 54.6743C71.9452 55.0826 70.7218 56.1738 70.53 56.5977C69.839 58.1187 71.3031 59.6162 72.8945 58.9686C73.4426 58.7468 76.2731 56.1208 76.8231 55.5438C77.61 54.7175 78.0837 53.5439 77.1539 52.6116V52.6136Z" fill="#FE680D"/>
</g>
<defs>
<clipPath id="clip0_6_474">
<rect width="80" height="71.2" fill="white" transform="translate(0 4.90002)"/>
</clipPath>
</defs>
</svg>
