<svg width="80" height="81" viewBox="0 0 80 81" fill="none" xmlns="http://www.w3.org/2000/svg">
<g clip-path="url(#clip0_6_483)">
<rect width="80" height="80" transform="translate(0 0.5)" fill="white"/>
<g clip-path="url(#clip1_6_483)">
<path d="M79.9999 38.3909V43.3873C79.7583 44.2867 79.7891 45.3163 79.6659 46.2536C77.3349 63.8417 62.9817 78.2323 45.3429 80.5329C44.4025 80.656 43.3744 80.6275 42.4718 80.8666C40.8183 80.7956 39.1175 80.9636 37.4687 80.8666C2.33088 78.8145 -13.1119 34.7885 13.306 11.056C38.087 -11.2068 78.0716 5.46778 79.9999 38.3909ZM37.9046 3.6098C8.69374 5.2595 -7.57584 38.6252 9.57497 62.5802C25.2831 84.5187 58.4429 83.0323 72.1494 59.8323C87.3008 34.192 67.5016 1.93879 37.9046 3.6098Z" fill="#FE680D"/>
<path d="M38.0612 6.26573C65.5878 4.63259 83.9278 34.8551 69.8045 58.5853C57.1451 79.8586 26.6834 81.3876 12.0081 61.3971C-4.3278 39.1415 10.6957 7.88939 38.0612 6.26573ZM38.5634 26.2089V8.87401C37.7106 9.22194 36.2467 8.90715 35.4389 9.26691C34.9296 9.49413 33.513 11.1012 33.096 11.6125C30.739 14.5095 29.1921 18.1924 28.0763 21.7355C29.6303 22.6089 30.2581 24.0906 30.6987 25.7474L38.5634 26.2113V26.2089ZM41.3777 8.87401V26.2089C45.0992 26.0716 48.8753 25.9699 52.5613 25.4279C52.8076 25.3924 52.7981 25.5273 52.7981 25.1935C52.7981 24.4432 52.2865 22.9687 52.0519 22.1853C51.0736 18.9142 49.5812 15.3616 47.6032 12.5734C47.0749 11.8279 45.2485 9.58407 44.5023 9.26691C43.6637 8.91188 42.2495 9.21957 41.3777 8.87401ZM30.7461 10.2823C24.1155 12.2255 18.3118 16.4432 14.1733 21.9154C14.1686 22.2823 19.4891 23.861 20.2045 24.0172C20.5598 24.0054 20.8038 23.3 21.0549 23.0113C22.2654 21.6243 23.6631 20.7912 25.5724 20.8835C26.6716 17.0894 28.4198 13.4681 30.7461 10.2799V10.2823ZM65.7702 22.1474C65.8863 22.0243 65.3249 21.3853 65.2064 21.2267C61.3688 16.0835 55.3305 12.1213 49.1951 10.2799C52.4783 14.5616 54.2053 19.7379 55.5982 24.8929C59.0805 24.3344 62.4514 23.3 65.7702 22.145V22.1474ZM24.7623 23.5912C22.0214 24.0338 21.9291 28.2657 24.6035 28.8267C28.9055 29.7308 29.0286 22.9 24.7623 23.5912ZM7.91703 39.4847H22.616L23.2154 31.0752C21.2255 30.3959 20.3537 28.5734 19.8539 26.6657L12.7069 24.3651C12.3706 24.4314 11.0866 27.0231 10.8616 27.5107C9.88558 29.6338 9.047 32.164 8.5898 34.4551C8.25815 36.1166 8.14445 37.8089 7.91703 39.4847ZM72.0265 39.4847C71.8014 37.8089 71.6854 36.119 71.3537 34.4551C70.8965 32.164 70.0579 29.6314 69.0819 27.5107C68.8593 27.0231 67.573 24.4314 67.2366 24.3651C63.6358 25.7521 59.9191 26.9426 56.0743 27.4586L57.164 35.6243C59.0283 36.2018 60.6416 37.4965 61.0774 39.4823H72.0217L72.0265 39.4847ZM41.3777 28.8645V39.4847H50.9149C51.2584 37.5367 52.8645 36.545 54.4611 35.6693L53.4117 27.932C49.4343 28.5261 45.4048 28.8219 41.3777 28.8669V28.8645ZM38.5634 28.8645L30.2249 28.4148C29.2679 30.1663 27.8868 31.1486 25.923 31.5462L25.2739 39.4847H38.5658V28.8645H38.5634ZM55.4087 38.2728C52.6205 38.7415 52.6773 43.1675 55.5413 43.5296C59.6751 44.0551 59.6064 37.5675 55.4087 38.2728ZM22.6137 42.2941H7.91466C8.13971 43.9699 8.25578 45.6598 8.58743 47.3237C9.04463 49.6148 9.88322 52.1474 10.8592 54.2681C11.0819 54.7557 12.3682 57.3474 12.7046 57.4137C16.3029 56.0196 20.0126 54.8219 23.8668 54.3202C23.104 50.3557 22.8103 46.3273 22.616 42.2965L22.6137 42.2941ZM38.5634 42.2941H25.2716C25.5014 46.1663 25.7051 50.0503 26.5295 53.8468C29.2632 53.4255 32.0253 53.1249 34.7945 53.0539C35.1191 51.2125 36.7323 49.5154 38.5634 49.1651V42.2941ZM50.9172 42.2941H41.3801V49.1651C43.2112 49.5154 44.8244 51.2125 45.149 53.0539C47.9182 53.1202 50.6804 53.4468 53.4141 53.8468L54.4635 46.1095C52.8668 45.2314 51.2631 44.2421 50.9172 42.2941ZM72.0265 42.2941H61.0822C60.6605 44.2728 59.007 45.5604 57.1688 46.1521L56.0791 54.3178C59.9285 54.829 63.6501 56.0006 67.2413 57.4113C67.5777 57.345 68.864 54.7533 69.0867 54.2657C70.0627 52.1427 70.9013 49.6125 71.3585 47.3214C71.6901 45.6598 71.8038 43.9675 72.0312 42.2918L72.0265 42.2941ZM39.62 51.5415C36.1543 52.0503 36.7157 57.506 40.6386 56.7817C43.7892 56.1995 42.9246 51.0586 39.62 51.5415ZM38.5634 72.9048V59.319C36.7441 58.8314 35.4294 57.506 34.8703 55.7166C32.3806 55.8728 29.8459 55.9888 27.3775 56.3509C27.1312 56.3864 27.1406 56.2515 27.1406 56.5853C27.1406 57.3356 27.6523 58.8101 27.8868 59.5935C28.8652 62.8669 30.3576 66.4148 32.3356 69.2054C32.8591 69.9462 34.7045 72.1876 35.4365 72.5119C36.2443 72.8717 37.7106 72.5569 38.5611 72.9048H38.5634ZM41.3777 59.3166V72.9024C42.2495 72.5592 43.6637 72.8645 44.5023 72.5095C45.2485 72.1924 47.0749 69.9486 47.6032 69.203C49.5812 66.4148 51.0736 62.8622 52.0519 59.5912C52.2865 58.8101 52.7958 57.3332 52.7981 56.5829C52.7981 56.2492 52.8076 56.3841 52.5613 56.3486C50.0952 55.9841 47.5581 55.8681 45.0684 55.7142C44.5117 57.5036 43.1946 58.829 41.3753 59.3166H41.3777ZM30.7461 71.4965C27.4628 67.2148 25.7288 62.0409 24.343 56.8835C20.8583 57.435 17.4945 58.493 14.1709 59.6314C14.0548 59.7545 14.6163 60.3935 14.7347 60.5521C18.5771 65.7024 24.6154 69.6456 30.7461 71.4989V71.4965ZM65.7702 59.6314C62.4538 58.4764 59.0805 57.4444 55.5982 56.8835C54.2053 62.0385 52.4689 67.2148 49.1951 71.4965C55.3305 69.6551 61.3688 65.693 65.2064 60.5498C65.3249 60.3912 65.8839 59.7521 65.7702 59.629V59.6314Z" fill="#FE680D"/>
</g>
</g>
<defs>
<clipPath id="clip0_6_483">
<rect width="80" height="80" fill="white" transform="translate(0 0.5)"/>
</clipPath>
<clipPath id="clip1_6_483">
<rect width="80" height="80" fill="white" transform="translate(0 0.900024)"/>
</clipPath>
</defs>
</svg>
