<svg width="20" height="20" viewBox="0 0 20 20" fill="none" xmlns="http://www.w3.org/2000/svg">
<path d="M14.472 19H2.1C1.94087 19 1.78826 18.9368 1.67574 18.8243C1.56321 18.7118 1.5 18.5591 1.5 18.4V8.60001C1.5 8.44088 1.56321 8.28826 1.67574 8.17574C1.78826 8.06322 1.94087 8.00001 2.1 8.00001H4.868C5.21337 8.00001 5.55286 7.91058 5.8534 7.74041C6.15395 7.57025 6.40531 7.32516 6.583 7.02901L9.293 2.51201C9.49739 2.17086 9.81937 1.91614 10.1984 1.79576C10.5774 1.67538 10.9874 1.69763 11.3512 1.85832C11.7149 2.01902 12.0075 2.30708 12.1737 2.66835C12.34 3.02961 12.3685 3.43917 12.254 3.82001L11.232 7.22801C11.2052 7.31752 11.1997 7.41204 11.2159 7.50406C11.2321 7.59607 11.2696 7.68303 11.3253 7.75801C11.3811 7.83298 11.4536 7.89391 11.537 7.93592C11.6205 7.97793 11.7126 7.99988 11.806 8.00001H16.382C16.6895 8.0001 16.9928 8.07107 17.2683 8.20742C17.5439 8.34376 17.7843 8.5418 17.9709 8.78616C18.1575 9.03051 18.2853 9.3146 18.3443 9.61634C18.4032 9.91809 18.3919 10.2294 18.311 10.526L16.401 17.526C16.2857 17.9491 16.0345 18.3225 15.6861 18.5889C15.3378 18.8552 14.9105 18.9997 14.472 19Z" fill="#858585" stroke="#858585" stroke-width="1.5" stroke-linecap="round"/>
</svg>
