<svg width="21" height="20" viewBox="0 0 21 20" fill="none" xmlns="http://www.w3.org/2000/svg">
<path d="M2.76412 10.1764C2.76412 9.8449 2.89582 9.52696 3.13024 9.29254C3.36466 9.05812 3.6826 8.92642 4.01412 8.92642H13.9141L10.6308 5.64309C10.41 5.40613 10.2898 5.09272 10.2955 4.76888C10.3012 4.44505 10.4324 4.13607 10.6614 3.90705C10.8904 3.67803 11.1994 3.54684 11.5233 3.54113C11.8471 3.53541 12.1605 3.65562 12.3975 3.87642L17.8141 9.29309C18.0482 9.52746 18.1797 9.84517 18.1797 10.1764C18.1797 10.5077 18.0482 10.8254 17.8141 11.0598L12.3975 16.4764C12.283 16.5992 12.145 16.6977 11.9917 16.7661C11.8384 16.8344 11.6728 16.8711 11.505 16.8741C11.3372 16.877 11.1704 16.8462 11.0148 16.7833C10.8591 16.7204 10.7178 16.6268 10.5991 16.5082C10.4804 16.3895 10.3868 16.2481 10.3239 16.0924C10.261 15.9368 10.2302 15.7701 10.2331 15.6022C10.2361 15.4344 10.2728 15.2689 10.3412 15.1155C10.4095 14.9622 10.508 14.8242 10.6308 14.7098L13.9141 11.4264H4.01412C3.32412 11.4264 2.76412 10.8664 2.76412 10.1764Z" fill="#B3B3B3"/>
</svg>
