<svg width="17" height="14" viewBox="0 0 17 14" fill="none" xmlns="http://www.w3.org/2000/svg">
<path d="M16.1773 7.17642C16.1773 6.8449 16.0456 6.52696 15.8112 6.29254C15.5767 6.05812 15.2588 5.92642 14.9273 5.92642L5.02729 5.92642L8.31062 2.64309C8.53142 2.40613 8.65162 2.09272 8.64591 1.76888C8.6402 1.44505 8.50901 1.13607 8.27999 0.907052C8.05097 0.67803 7.74199 0.546843 7.41816 0.541128C7.09432 0.535415 6.78091 0.655622 6.54395 0.876421L1.12729 6.29309C0.893201 6.52746 0.761719 6.84517 0.761719 7.17642C0.761719 7.50767 0.893201 7.82538 1.12729 8.05975L6.54395 13.4764C6.65839 13.5992 6.79639 13.6977 6.94972 13.7661C7.10305 13.8344 7.26858 13.8711 7.43641 13.8741C7.60425 13.877 7.77097 13.8462 7.92661 13.7833C8.08226 13.7204 8.22365 13.6268 8.34235 13.5082C8.46105 13.3895 8.55462 13.2481 8.61749 13.0924C8.68036 12.9368 8.71123 12.7701 8.70827 12.6022C8.70531 12.4344 8.66857 12.2689 8.60025 12.1155C8.53193 11.9622 8.43343 11.8242 8.31062 11.7098L5.02729 8.42642H14.9273C15.6173 8.42642 16.1773 7.86642 16.1773 7.17642Z" fill="#B3B3B3"/>
</svg>
