<svg width="18" height="19" viewBox="0 0 18 19" fill="none" xmlns="http://www.w3.org/2000/svg">
<path d="M14.9491 10.2809C14.8074 11.3608 14.3745 12.3819 13.6967 13.2345C13.0189 14.0871 12.1218 14.7391 11.1015 15.1206C10.0813 15.5021 8.9765 15.5987 7.90556 15.4001C6.83462 15.2014 5.83796 14.7149 5.02248 13.9929C4.20699 13.2708 3.60345 12.3404 3.27657 11.3014C2.94969 10.2624 2.9118 9.15397 3.16698 8.09506C3.42216 7.03616 3.96077 6.0667 4.72504 5.29064C5.48932 4.51459 6.45044 3.96121 7.50531 3.68988C10.4296 2.93988 13.4566 4.44513 14.5741 7.25013" stroke="#FF3D3D" stroke-width="1.5" stroke-linecap="round" stroke-linejoin="round"/>
<path d="M15 3.50012V7.25012H11.25" stroke="#FF3D3D" stroke-width="1.5" stroke-linecap="round" stroke-linejoin="round"/>
</svg>
